<?xml version="1.0" encoding="UTF-8" standalone="no"?>
  <svg
    xmlns:dc="http://purl.org/dc/elements/1.1/"
    xmlns:cc="http://creativecommons.org/ns#"
    xmlns:rdf="http://www.w3.org/1999/02/22-rdf-syntax-ns#"
    xmlns:svg="http://www.w3.org/2000/svg"
    xmlns="http://www.w3.org/2000/svg"
    xmlns:sodipodi="http://sodipodi.sourceforge.net/DTD/sodipodi-0.dtd"
    xmlns:inkscape="http://www.inkscape.org/namespaces/inkscape"
    id="svg3013"
    version="1.1"
    inkscape:version="0.48.3.1 r9886"
    width="100%"
    height="100%"
    sodipodi:docname="signature.svg"
    viewBox="0 0 13710 6810">
  <g id="l3UOSdHl7VWs3sMP4Z0pC9E" fill="rgb(0,0,0)" style="transform: none;">
    <g style="transform: none;">
      <path d="M1010 5830 c-49 -49 -24 -102 295 -615 316 -508 398 -623 730 -1030 325 -397 413 -521 650 -915 256 -425 427 -658 807 -1102 65 -76 118 -145 118 -153 0 -21 -46 -13 -169 32 -216 77 -340 146 -736 409 -159 105 -418 267 -575 360 -157 92 -343 203 -415 248 -171 106 -269 156 -306 156 -44 0 -104 -35 -129 -75 -14 -23 -26 -66 -32 -115 -11 -87 -6 -130 17 -130 20 0 35 41 35 96 0 56 22 109 51 124 50 27 95 8 334 -137 127 -77 286 -173 355 -213 292 -170 409 -243 646 -401 139 -92 300 -195 358 -229 209 -120 445 -212 594 -230 l85 -11 141 -142 c77 -79 187 -178 244 -220 127 -95 310 -186 447 -223 89 -24 119 -27 272 -28 l171 -1 43 30 c115 80 130 264 38 447 -40 80 -124 207 -201 306 -68 87 -648 667 -842 842 -70 63 -134 127 -142 142 -7 14 -61 76 -120 137 -194 203 -320 275 -340 195 -11 -44 40 -98 351 -370 334 -293 911 -851 1022 -989 85 -107 168 -232 206 -313 30 -62 32 -75 32 -174 0 -104 -1 -107 -29 -137 -37 -38 -107 -47 -268 -32 -146 14 -264 47 -394 111 -138 67 -243 147 -409 311 l-140 137 18 49 c35 98 11 234 -72 408 -65 138 -133 243 -373 581 -112 159 -310 447 -439 639 -417 621 -583 838 -1045 1365 -513 586 -797 880 -850 880 -8 0 -23 -9 -34 -20z m354 -417 c87 -92 398 -438 578 -643 316 -361 550 -670 933 -1235 153 -225 344 -500 424 -610 287 -394 396 -578 435 -731 20 -76 21 -174 4 -174 -20 1 -387 440 -570 681 -133 176 -233 326 -409 620 -246 411 -346 553 -654 929 -206 252 -324 407 -442 585 -122 183 -393 627 -393 643 0 25 22 9 94 -65z"></path>
      <path d="M4736 5479 c-110 -87 -18 -414 290 -1031 318 -639 629 -956 1013 -1035 85 -18 573 -25 692 -10 l66 8 134 -168 c154 -193 304 -371 504 -598 77 -88 175 -203 217 -255 93 -116 308 -428 308 -447 0 -21 -37 -16 -243 31 -291 67 -322 71 -532 70 -218 0 -351 -22 -464 -76 -76 -36 -156 -111 -166 -156 -3 -18 -11 -32 -17 -32 -5 0 -44 23 -86 50 -107 70 -237 132 -383 182 l-124 43 -160 -1 c-237 -2 -360 -35 -433 -119 -27 -30 -32 -44 -32 -86 0 -64 13 -87 57 -106 37 -15 107 -10 119 8 10 18 -18 39 -51 39 -54 0 -65 8 -65 49 0 71 82 114 253 132 163 18 303 8 422 -30 225 -73 464 -217 535 -323 29 -44 40 -53 65 -53 42 0 44 32 6 86 -26 35 -31 51 -31 100 0 55 1 59 45 97 91 80 273 117 540 109 187 -5 250 -14 475 -67 99 -23 328 -68 356 -70 1 0 36 -51 79 -112 145 -209 371 -408 533 -468 115 -44 219 -23 249 48 38 91 -50 268 -185 375 -119 93 -265 155 -491 207 -68 16 -124 30 -126 32 -1 2 -66 99 -145 217 -161 240 -265 374 -494 636 -160 183 -356 418 -480 578 -65 84 -77 117 -42 117 8 0 68 16 132 36 245 74 326 116 354 184 7 16 18 30 26 30 23 0 241 -153 442 -309 196 -153 224 -168 256 -135 36 35 20 66 -168 329 -92 128 -171 276 -182 339 l-7 39 95 -5 c82 -3 103 -8 169 -40 167 -79 581 -344 666 -426 55 -54 83 -59 104 -20 13 25 10 33 -56 137 -60 95 -98 212 -76 234 19 19 198 22 272 3 137 -35 380 -178 527 -310 73 -66 105 -79 130 -54 21 21 13 60 -27 145 -38 79 -67 161 -58 169 2 2 37 7 78 10 53 5 100 2 160 -10 107 -22 317 -91 435 -145 51 -22 101 -41 112 -41 12 0 34 11 49 24 26 22 28 30 27 88 -1 37 3 66 10 70 6 4 38 8 71 8 99 0 184 -48 420 -239 155 -125 186 -143 223 -130 27 9 72 64 72 87 0 6 8 27 17 47 23 49 65 59 223 53 114 -5 136 -9 249 -47 68 -23 185 -71 260 -107 74 -35 144 -63 155 -62 10 2 28 15 39 30 19 25 19 32 9 79 -18 79 -15 125 10 148 53 50 190 71 483 71 242 1 340 11 366 36 11 11 15 24 11 32 -11 17 -161 30 -427 38 -186 6 -233 4 -304 -10 -174 -35 -261 -109 -261 -221 0 -55 -8 -56 -88 -16 -87 43 -229 97 -323 122 -65 18 -113 23 -215 23 -126 1 -132 0 -190 -29 -53 -27 -62 -36 -89 -92 -16 -34 -33 -62 -38 -62 -4 -1 -58 40 -120 90 -132 107 -282 209 -352 239 -69 30 -157 37 -228 16 -70 -20 -97 -52 -97 -112 0 -24 -4 -44 -9 -44 -5 0 -60 20 -123 44 -264 104 -442 142 -576 126 -83 -11 -102 -19 -132 -57 -18 -23 -20 -35 -14 -80 4 -33 3 -53 -4 -53 -5 0 -50 25 -98 56 -209 131 -351 186 -489 187 -124 1 -186 -16 -226 -61 -31 -35 -31 -38 -26 -109 3 -44 2 -73 -4 -73 -6 0 -94 53 -197 117 -257 160 -350 208 -440 223 -97 16 -173 6 -213 -27 -45 -39 -52 -65 -34 -136 22 -85 46 -135 119 -247 73 -111 87 -144 59 -133 -10 4 -61 39 -114 79 -249 188 -518 331 -569 304 -45 -24 -27 -76 39 -109 51 -27 101 -69 101 -88 0 -8 -31 -29 -75 -49 -83 -38 -371 -124 -413 -123 -21 0 -40 16 -85 72 -147 181 -366 394 -687 672 -211 182 -323 287 -540 506 -326 328 -715 695 -749 707 -25 9 -34 7 -55 -9z m283 -336 c113 -109 330 -319 481 -468 151 -149 376 -359 500 -466 304 -262 466 -414 585 -548 100 -112 124 -146 112 -158 -4 -3 -62 -11 -130 -16 -145 -12 -478 5 -575 28 -262 63 -505 283 -737 666 -123 205 -340 673 -425 920 -36 103 -53 239 -30 239 7 0 105 -89 219 -197z m3317 -3389 c143 -41 279 -111 357 -183 76 -72 127 -161 127 -224 l0 -40 -63 5 c-101 8 -243 95 -377 229 -72 72 -180 209 -180 228 0 17 42 13 136 -15z"></path>
    </g>
  </g>
</svg>
